<svg xmlns="http://www.w3.org/2000/svg" viewBox="0 0 512 512" width="100" height="100">
  <g>
    <path fill="#E4405F" d="M349.3 69.5c-27.3 0-49.5 22.2-49.5 49.5s22.2 49.5 49.5 49.5 49.5-22.2 49.5-49.5-22.2-49.5-49.5-49.5z"/>
    <path fill="#E4405F" d="M256 0c70.7 0 128.6 57.9 128.6 128.6v255.3c0 70.7-57.9 128.6-128.6 128.6H128.6C57.9 512 0 454.1 0 383.4V128.6C0 57.9 57.9 0 128.6 0h127.4zM256 426.4c93.4 0 169.4-76 169.4-169.4V128.6c0-93.4-76-169.4-169.4-169.4H128.6c-93.4 0-169.4 76-169.4 169.4v128.4c0 93.4 76 169.4 169.4 169.4h127.4z"/>
    <path fill="#fff" d="M327.6 256c0-39.7-32.2-71.8-71.8-71.8s-71.8 32.2-71.8 71.8 32.2 71.8 71.8 71.8 71.8-32.1 71.8-71.8zM256 295.8c-23.6 0-42.8-19.2-42.8-42.8s19.2-42.8 42.8-42.8 42.8 19.2 42.8 42.8-19.2 42.8-42.8 42.8z"/>
    <path fill="#fff" d="M393.4 92.6c0 15.3-12.4 27.7-27.7 27.7-15.3 0-27.7-12.4-27.7-27.7 0-15.3 12.4-27.7 27.7-27.7 15.3 0 27.7 12.4 27.7 27.7z"/>
  </g>
</svg>
